<?xml version="1.0" encoding="UTF-8"?>
<svg xmlns="http://www.w3.org/2000/svg" width="181.23" height="180.839" viewBox="0 0 181.23 180.839">
  <g id="Groupe_70" data-name="Groupe 70" transform="translate(-11.091 -10.945)">
    <g id="Groupe_67" data-name="Groupe 67">
      <path id="Tracé_1661" data-name="Tracé 1661" d="M25.183,64.685H11.091v-52.7H28.232a50.246,50.246,0,0,1,8.225.541,19.55,19.55,0,0,1,5.6,1.969,16.409,16.409,0,0,1,3.63,2.548,15.344,15.344,0,0,1,2.779,3.437,14.439,14.439,0,0,1,1.621,3.936,18.374,18.374,0,0,1,.541,4.479,15.447,15.447,0,0,1-1.351,6.6,16.347,16.347,0,0,1-4.363,5.366,14.978,14.978,0,0,1,4.711,5.482,18.093,18.093,0,0,1,1.389,7.568v10.77H36.958V54.07q-.038-4.054-1.815-5.83-1.814-1.7-5.829-1.7H27.538V36.233h1.545A8.992,8.992,0,0,0,34.6,34.766a4.988,4.988,0,0,0,1.891-4.248,6.035,6.035,0,0,0-.772-3.049,4.816,4.816,0,0,0-2.279-1.93,9.578,9.578,0,0,0-3.628-.657H25.183Z" fill="#fff"></path>
      <path id="Tracé_1662" data-name="Tracé 1662" d="M83.343,52.8h10.81V64.685H75.311a14.854,14.854,0,0,1-11.118-4.746,14.3,14.3,0,0,1-2.741-4.557,13.365,13.365,0,0,1-.966-4.98q0-7.065,6.409-12.084a14.543,14.543,0,0,1-5.521-11.467,15.405,15.405,0,0,1,.888-5.1,14.384,14.384,0,0,1,2.548-4.477,13.72,13.72,0,0,1,3.823-3.243,17.342,17.342,0,0,1,8.841-2.047H94.153V23.878h-12.9a5.373,5.373,0,0,0-3.436,1.236,4.075,4.075,0,0,0,.155,6.061,4.947,4.947,0,0,0,3.474,1.274h12.7V44.225H82.106a5.656,5.656,0,0,0-3.589,1.2,4.006,4.006,0,0,0-1.353,3.09,3.963,3.963,0,0,0,1.353,3.049A4.79,4.79,0,0,0,81.874,52.8Z" fill="#fff"></path>
      <path id="Tracé_1663" data-name="Tracé 1663" d="M103.357,64.379V51.328a11.433,11.433,0,0,0,4.979,1.274,6.938,6.938,0,0,0,4.132-1.158,3.388,3.388,0,0,0,1.622-2.9q0-1.892-2.2-5.057-1.389-2.009-2.935-4.439a34.242,34.242,0,0,1-1.736-3.09,18.931,18.931,0,0,1-2.124-8.454,16.149,16.149,0,0,1,2.278-8.495,15.782,15.782,0,0,1,6.331-5.906,18.968,18.968,0,0,1,9-2.162,24.9,24.9,0,0,1,2.935.154,20.347,20.347,0,0,1,2.933.58V24.92a11.11,11.11,0,0,0-3.437-.656,6.1,6.1,0,0,0-3.937,1.237,4.055,4.055,0,0,0-1.544,3.28q0,2.318,2.819,6.641a79.7,79.7,0,0,1,4.478,7.452,17.783,17.783,0,0,1,1.544,7.374,15.294,15.294,0,0,1-2.123,8.068,14.119,14.119,0,0,1-6.023,5.485,20.259,20.259,0,0,1-8.957,1.929A26.766,26.766,0,0,1,103.357,64.379Z" fill="#fff"></path>
      <path id="Tracé_1664" data-name="Tracé 1664" d="M137.537,38.318a27.417,27.417,0,0,1,41.117-23.705,27.4,27.4,0,0,1,10,10,27.512,27.512,0,0,1,0,27.45,27.452,27.452,0,0,1-37.448,10,27.353,27.353,0,0,1-13.668-23.745Zm14.016,0a13.037,13.037,0,0,0,1.813,6.718,13.772,13.772,0,0,0,4.865,4.864,13.275,13.275,0,0,0,13.4,0,13.273,13.273,0,0,0,4.9-4.864,13.594,13.594,0,0,0,0-13.436,13.258,13.258,0,0,0-4.9-4.864,13.52,13.52,0,0,0-13.4,0,13.364,13.364,0,0,0-4.865,4.864A13.032,13.032,0,0,0,151.553,38.318Z" fill="#fdc52c"></path>
    </g>
    <g id="Groupe_68" data-name="Groupe 68">
      <path id="Tracé_1665" data-name="Tracé 1665" d="M25.183,95.878v31.464H11.091V95.916a28.915,28.915,0,0,1,1.351-9.342A18.4,18.4,0,0,1,16.8,79.74,19.586,19.586,0,0,1,31.515,73.6a21.193,21.193,0,0,1,8.571,1.738A20.287,20.287,0,0,1,50.817,87.114a28.469,28.469,0,0,1,1.159,8.8v31.426H37.883V94.526a7.758,7.758,0,0,0-1.582-5.25A5.957,5.957,0,0,0,31.668,87.5,6.131,6.131,0,0,0,27,89.43a7.317,7.317,0,0,0-1.813,5.1Z" fill="#fff"></path>
      <path id="Tracé_1666" data-name="Tracé 1666" d="M104.691,97.847v29.5H90.6v-14.4H77.9v14.4H63.808V95.916a31.317,31.317,0,0,1,.5-6.022,20.305,20.305,0,0,1,1.5-4.826A17.781,17.781,0,0,1,68.476,80.9a19.757,19.757,0,0,1,6.99-5.406,20.554,20.554,0,0,1,8.8-1.892A21.069,21.069,0,0,1,92.8,75.339a20.29,20.29,0,0,1,10.733,11.775,28.472,28.472,0,0,1,1.158,8.8ZM77.9,100.975H90.6v-5.1a12.619,12.619,0,0,0-.771-5.058,6.154,6.154,0,0,0-2.239-2.433,6.565,6.565,0,0,0-3.323-.887,6.187,6.187,0,0,0-3.473,1.043,5.92,5.92,0,0,0-2.278,2.741,12.257,12.257,0,0,0-.617,4.594Z" fill="#fff"></path>
      <path id="Tracé_1667" data-name="Tracé 1667" d="M130.614,95.878v31.464H116.52V95.916a28.823,28.823,0,0,1,1.355-9.342,18.36,18.36,0,0,1,4.359-6.834A19.589,19.589,0,0,1,136.945,73.6a21.179,21.179,0,0,1,8.571,1.738,20.273,20.273,0,0,1,10.733,11.775,28.471,28.471,0,0,1,1.158,8.8v31.426H143.315V94.526a7.748,7.748,0,0,0-1.585-5.25A5.947,5.947,0,0,0,137.1,87.5a6.124,6.124,0,0,0-4.671,1.93,7.313,7.313,0,0,0-1.814,5.1Z" fill="#fff"></path>
    </g>
    <g id="Groupe_69" data-name="Groupe 69">
      <path id="Tracé_1668" data-name="Tracé 1668" d="M45.063,176.726v14.287a26.494,26.494,0,0,1-6.293.771,31.669,31.669,0,0,1-7.3-.811,26.168,26.168,0,0,1-3.319-1.025,27.046,27.046,0,0,1-3.012-1.448,26.726,26.726,0,0,1-5.6-4.13,27.032,27.032,0,0,1-6.254-9.188,27.341,27.341,0,0,1-2.2-10.809,27.37,27.37,0,0,1,13.7-23.745A27.1,27.1,0,0,1,38.578,137a25.516,25.516,0,0,1,6.485.849v14.246a27.127,27.127,0,0,0-3.244-.811,15.769,15.769,0,0,0-3.008-.269A13.872,13.872,0,0,0,31.9,152.79a13.427,13.427,0,0,0-4.982,18.415,12.43,12.43,0,0,0,5.018,4.827A14.187,14.187,0,0,0,39,177.807,19.955,19.955,0,0,0,45.063,176.726Z" fill="#fff"></path>
      <path id="Tracé_1669" data-name="Tracé 1669" d="M76.351,178.85H87.159v11.89H68.318A14.852,14.852,0,0,1,57.2,185.993a14.288,14.288,0,0,1-2.741-4.557,13.365,13.365,0,0,1-.966-4.98q0-7.065,6.409-12.083A14.55,14.55,0,0,1,54.38,152.9a15.457,15.457,0,0,1,.888-5.1,14.444,14.444,0,0,1,2.548-4.477,13.759,13.759,0,0,1,3.822-3.243,17.35,17.35,0,0,1,8.841-2.047h16.68v11.891H74.264a5.378,5.378,0,0,0-3.437,1.236,4.077,4.077,0,0,0,.157,6.062,4.94,4.94,0,0,0,3.472,1.273h12.7v11.776H75.114a5.66,5.66,0,0,0-3.591,1.2,4.013,4.013,0,0,0-1.353,3.09,3.969,3.969,0,0,0,1.353,3.049,4.8,4.8,0,0,0,3.357,1.236Z" fill="#fff"></path>
    </g>
  </g>
</svg>
